<svg width="25" height="24" viewBox="0 0 25 24" fill="none" xmlns="http://www.w3.org/2000/svg">
<path d="M23.1254 10.748C23.0509 10.6204 23.0379 10.4118 23.0827 10.2673C23.3057 9.54715 23.5658 8.83869 23.796 8.12054C23.9384 7.67584 23.8126 7.36493 23.4156 7.12794C22.7418 6.72542 22.0598 6.33644 21.3899 5.92778C21.2815 5.86159 21.1627 5.73195 21.1424 5.61554C21.0268 4.95068 20.9497 4.27945 20.8398 3.61357C20.7264 2.92589 20.6308 2.57264 19.7 2.55949C19.02 2.54981 18.3406 2.49338 17.6605 2.47386C17.4379 2.4674 17.3174 2.36351 17.1934 2.19271C16.7635 1.60011 16.3161 1.0201 15.8721 0.437728C15.5905 0.068424 15.1955 -0.0199666 14.7773 0.181765C14.0915 0.512817 13.4083 0.849692 12.7153 1.165C12.5972 1.21868 12.4146 1.22395 12.2978 1.17153C11.6037 0.859452 10.9181 0.528086 10.2339 0.194516C9.80317 -0.0154014 9.41671 0.0636227 9.12123 0.452604C8.67212 1.04371 8.23607 1.64497 7.7768 2.22805C7.68762 2.34123 7.5217 2.45017 7.3842 2.45969C6.61285 2.51266 5.83945 2.53525 5.0666 2.56666C4.69116 2.58193 4.3287 2.81624 4.27856 3.08669C4.19277 3.54997 4.09746 4.0116 4.02126 4.47646C3.95838 4.86017 3.93169 5.25025 3.85763 5.63144C3.83669 5.73911 3.72311 5.85466 3.62158 5.91645C2.95129 6.32455 2.27077 6.71574 1.59757 7.11897C1.193 7.36131 1.06305 7.65663 1.20127 8.10669C1.38332 8.7 1.61536 9.2782 1.79056 9.87324C1.87958 10.176 2.115 10.4626 1.85731 10.827C1.43747 11.4206 1.06974 12.051 0.677851 12.6646C0.409767 13.0843 0.442116 13.4573 0.792844 13.7986C1.34208 14.3329 1.89186 14.8668 2.45062 15.3912C2.60308 15.5342 2.64039 15.6781 2.61772 15.8835C2.53862 16.5985 2.48305 17.3162 2.40859 18.1432C2.39804 18.5014 2.58537 18.8852 2.89005 18.9734C3.56806 19.1694 4.25361 19.3407 4.92626 19.5532C5.18553 19.6352 5.49368 19.6356 5.62953 19.991C5.90911 20.7224 6.2337 21.4368 6.54996 22.1538C6.70667 22.5088 7.01371 22.6729 7.39774 22.609C7.70187 22.5585 8.00144 22.4803 8.30297 22.4141C8.79168 22.3066 9.27779 22.1839 9.77059 22.101C9.89746 22.0796 10.0715 22.149 10.1791 22.2335C10.7941 22.7173 11.3893 23.2262 12.0042 23.7102C12.3618 23.9915 12.6092 23.9964 12.9775 23.7176C13.503 23.3199 14.014 22.9022 14.5192 22.4789C14.8284 22.2196 15.0842 22.0088 15.5663 22.1772C16.1904 22.3953 16.8665 22.4635 17.5196 22.5994C17.9451 22.6879 18.2773 22.5395 18.4527 22.1443C18.7705 21.4281 19.0696 20.7036 19.3861 19.9869C19.4363 19.8732 19.5172 19.7206 19.6167 19.6891C20.3964 19.4426 21.1823 19.2147 21.9703 18.9951C22.3532 18.8884 22.6092 18.6023 22.5887 18.2062C22.5623 17.6934 22.5096 17.1819 22.4657 16.6699C22.4427 16.4034 22.392 16.1367 22.397 15.8708C22.3999 15.7153 22.4433 15.5173 22.5452 15.414C23.0753 14.8755 23.6336 14.3648 24.1752 13.8374C24.5734 13.4497 24.5963 13.1079 24.2943 12.6341C23.8967 12.0102 23.4985 11.3863 23.1254 10.748Z" fill="#25BA2F"/>
<path d="M10.3508 15.0745C10.2448 15.0745 10.1387 15.0314 10.0614 14.9477L7.58753 12.2666C7.44035 12.1067 7.45034 11.8577 7.6102 11.7109C7.76927 11.5633 8.0187 11.5725 8.16628 11.7332L10.3927 14.1459L16.8781 9.0114C17.048 8.87453 17.2966 8.9053 17.4312 9.07516C17.5661 9.2458 17.5373 9.49334 17.367 9.62785L10.5953 14.9891C10.523 15.0468 10.4369 15.0745 10.3508 15.0745Z" fill="white"/>
</svg>
