<svg width="25" height="24" viewBox="0 0 25 24" fill="none" xmlns="http://www.w3.org/2000/svg">
<g clip-path="url(#clip0_364_1413)">
<path d="M12.5 24C19.1274 24 24.5 18.6274 24.5 12C24.5 5.37258 19.1274 0 12.5 0C5.87258 0 0.5 5.37258 0.5 12C0.5 18.6274 5.87258 24 12.5 24Z" fill="#F05537"/>
<path d="M11.5129 7.75585C13.322 7.35382 15.1311 8.09087 16.1362 9.49795L8.14039 11.307C8.4084 9.58728 9.70381 8.15787 11.5129 7.75585ZM16.1808 14.3892C15.5555 15.3049 14.5951 15.9526 13.5007 16.1983C11.6916 16.6004 9.86015 15.8633 8.8551 14.4339L16.8732 12.6248L18.1686 12.3344L20.6701 11.7761C20.6478 11.24 20.5808 10.704 20.4691 10.1903C19.464 5.87974 15.0641 3.17725 10.6642 4.18231C6.26428 5.18737 3.51712 9.47561 4.54452 13.8085C5.57191 18.1414 9.94949 20.8216 14.3494 19.8165C16.9402 19.2358 18.9503 17.4937 19.9777 15.2826L16.1808 14.3892Z" fill="white"/>
</g>
<defs>
<clipPath id="clip0_364_1413">
<rect width="24" height="24" fill="white" transform="translate(0.5)"/>
</clipPath>
</defs>
</svg>
