<svg width="48" height="48" viewBox="0 0 48 48" fill="none" xmlns="http://www.w3.org/2000/svg">
<path d="M0.093749 23.9999C0.0937484 37.1818 10.8182 47.9062 24.0001 47.9062C37.1819 47.9062 47.9062 37.1818 47.9062 23.9999C47.9062 10.8182 37.1819 0.0937495 24.0001 0.093749C10.8182 0.0937484 0.0937495 10.8182 0.093749 23.9999ZM24.3322 9.43659C25.1056 9.51037 25.8586 9.84328 26.4511 10.4353L36.2517 20.2365C37.6054 21.5899 37.6054 23.7842 36.2523 25.1373L36.2517 25.1373C34.8985 26.4908 32.7047 26.4907 31.351 25.1377L27.4663 21.2529L27.466 35.1136C27.466 37.0277 25.9147 38.5792 24.0006 38.5794L24.0001 38.5794C22.0864 38.5794 20.5352 37.0281 20.5346 35.1141L20.5352 21.2515L16.6488 25.1381C15.2951 26.4916 13.1016 26.4916 11.7484 25.1383C10.3947 23.7853 10.3947 21.591 11.7484 20.2379L21.5489 10.4356C22.3106 9.67434 23.3381 9.34097 24.3322 9.43659Z" fill="black"/>
</svg>
