<svg width="24" height="24" viewBox="0 0 24 24" fill="none" xmlns="http://www.w3.org/2000/svg">
<path d="M22.0001 6.45006C21.4832 7.13912 20.8585 7.74019 20.1501 8.23006V8.78006C20.1529 10.3983 19.8337 12.0009 19.2112 13.4946C18.5887 14.9882 17.6752 16.3432 16.524 17.4804C15.3728 18.6177 14.0068 19.5145 12.5057 20.1188C11.0045 20.723 9.39812 21.0226 7.78006 21.0001C5.89049 21.0064 4.02512 20.5751 2.33006 19.7401C2.28534 19.7205 2.24731 19.6884 2.22066 19.6475C2.19401 19.6066 2.17989 19.5589 2.18006 19.5101V19.4001C2.18006 19.3659 2.18679 19.3321 2.19986 19.3006C2.21292 19.269 2.23207 19.2404 2.25622 19.2162C2.28036 19.1921 2.30902 19.1729 2.34057 19.1599C2.37211 19.1468 2.40592 19.1401 2.44006 19.1401C4.29747 19.0789 6.08861 18.4352 7.56006 17.3001C6.73627 17.2835 5.93395 17.0343 5.24566 16.5814C4.55738 16.1284 4.01117 15.4901 3.67006 14.7401C3.65277 14.6989 3.64635 14.6541 3.65141 14.6098C3.65647 14.5655 3.67284 14.5232 3.69895 14.487C3.72507 14.4509 3.76004 14.422 3.80051 14.4033C3.84099 14.3846 3.8856 14.3766 3.93006 14.3801C4.44102 14.4314 4.95708 14.3839 5.45006 14.2401C4.54554 14.0524 3.724 13.5823 3.10394 12.8975C2.48387 12.2127 2.09733 11.3487 2.00006 10.4301C1.99658 10.3856 2.00458 10.341 2.02332 10.3005C2.04205 10.26 2.07088 10.2251 2.10704 10.1989C2.1432 10.1728 2.18546 10.1565 2.22977 10.1514C2.27408 10.1463 2.31895 10.1528 2.36006 10.1701C2.85811 10.3897 3.39575 10.5054 3.94006 10.5101C3.14929 9.99128 2.55261 9.22519 2.24324 8.33146C1.93387 7.43773 1.92924 6.4667 2.23006 5.57006C2.26145 5.48198 2.31518 5.40356 2.38597 5.34248C2.45677 5.2814 2.54221 5.23975 2.63394 5.22161C2.72567 5.20346 2.82054 5.20945 2.90925 5.23898C2.99797 5.26851 3.07751 5.32057 3.14006 5.39006C5.33455 7.72454 8.3498 9.11564 11.5501 9.27006C11.4681 8.94311 11.4278 8.60712 11.4301 8.27006C11.4447 7.40591 11.7158 6.5656 12.209 5.85586C12.7022 5.14612 13.3952 4.59897 14.2 4.28391C15.0049 3.96885 15.8851 3.90008 16.7291 4.08635C17.5731 4.27262 18.3426 4.70552 18.9401 5.33006C19.773 5.17147 20.5782 4.89184 21.3301 4.50006C21.3571 4.48321 21.3882 4.47428 21.4201 4.47428C21.4519 4.47428 21.4831 4.48321 21.5101 4.50006C21.5269 4.52706 21.5358 4.55824 21.5358 4.59006C21.5358 4.62188 21.5269 4.65306 21.5101 4.68006C21.1459 5.51366 20.5306 6.21283 19.7501 6.68006C20.4336 6.60083 21.1051 6.43968 21.7501 6.20006C21.7766 6.182 21.808 6.17235 21.8401 6.17235C21.8722 6.17235 21.9035 6.182 21.9301 6.20006C21.9525 6.21034 21.9725 6.22539 21.9886 6.24418C22.0046 6.26296 22.0164 6.28502 22.0231 6.30882C22.0297 6.33262 22.0311 6.35758 22.0271 6.38198C22.0232 6.40637 22.0139 6.4296 22.0001 6.45006Z" fill="black"/>
</svg>
